# MagicaVoxel @ Ephtracy

# group
o 

# material
mtllib untitled air gotovoe sobaky porvali-1.mtl
usemtl palette

# normals
vn -1 0 0
vn 1 0 0
vn 0 0 1
vn 0 0 -1
vn 0 -1 0
vn 0 1 0

# texcoords
vt 0.00976562 0.5
vt 0.482422 0.5
vt 0.759766 0.5
vt 0.912109 0.5
vt 0.916016 0.5

# verts
v -4.7 1.5 -1.9
v -4.7 1.5 -2.1
v -4.7 1.7 -1.9
v -4.7 1.7 -2.1
v -4.6 2.1 0.6
v -4.6 2.1 0.2
v -4.6 2.1 -0.2
v -4.6 2.1 -0.6
v -4.6 2.5 0.6
v -4.6 2.5 0.4
v -4.6 2.5 0.2
v -4.6 2.5 -0.2
v -4.6 2.5 -0.4
v -4.6 2.5 -0.6
v -4.6 2.7 0.4
v -4.6 2.7 0.2
v -4.6 2.7 -0.2
v -4.6 2.7 -0.4
v -4.5 1.7 -1.9
v -4.5 1.7 -2.1
v -4.5 1.8 -1.9
v -4.5 1.8 -2.1
v -4.4 1.1 0.6
v -4.4 1.1 -0.6
v -4.4 2.1 0.8
v -4.4 2.1 0.6
v -4.4 2.1 0.2
v -4.4 2.1 -0.2
v -4.4 2.1 -0.6
v -4.4 2.1 -0.8
v -4.4 2.3 0.2
v -4.4 2.3 -0.2
v -4.4 2.5 0.8
v -4.4 2.5 0.6
v -4.4 2.5 0.4
v -4.4 2.5 0.2
v -4.4 2.5 -0.2
v -4.4 2.5 -0.4
v -4.4 2.5 -0.6
v -4.4 2.5 -0.8
v -4.4 2.7 0.6
v -4.4 2.7 0.4
v -4.4 2.7 0.2
v -4.4 2.7 -0.2
v -4.4 2.7 -0.4
v -4.4 2.7 -0.6
v -4.4 3.1 0.8
v -4.4 3.1 0.6
v -4.4 3.1 0.2
v -4.4 3.1 -0.2
v -4.4 3.1 -0.6
v -4.4 3.1 -0.8
v -4.4 3.3 0.8
v -4.4 3.3 0.6
v -4.4 3.3 -0.6
v -4.4 3.3 -0.8
v -4.4 3.5 0.6
v -4.4 3.5 0.4
v -4.4 3.5 -0.4
v -4.4 3.5 -0.6
v -4.4 3.7 0.4
v -4.4 3.7 -0.4
v -4.2 0.9 0.6
v -4.2 0.9 -0.6
v -4.2 1.1 0.8
v -4.2 1.1 0.6
v -4.2 1.1 -0.6
v -4.2 1.1 -0.8
v -4.2 1.8 -1.9
v -4.2 1.8 -2.1
v -4.2 1.9 -1.9
v -4.2 1.9 -2.1
v -4.2 2.1 0.8
v -4.2 2.1 0.6
v -4.2 2.1 -0.6
v -4.2 2.1 -0.8
v -4.2 3.3 0.8
v -4.2 3.3 0.6
v -4.2 3.3 -0.6
v -4.2 3.3 -0.8
v -4.2 3.5 0.8
v -4.2 3.5 0.6
v -4.2 3.5 0.4
v -4.2 3.5 -0.4
v -4.2 3.5 -0.6
v -4.2 3.5 -0.8
v -4.2 3.7 0.6
v -4.2 3.7 0.4
v -4.2 3.7 -0.4
v -4.2 3.7 -0.6
v -4.1 -1.4 0.6
v -4.1 -1.4 0.4
v -4.1 -1.4 -0.4
v -4.1 -1.4 -0.6
v -4.1 -1.2 0.6
v -4.1 -1.2 0.4
v -4.1 -1.2 -0.4
v -4.1 -1.2 -0.6
v -3.9 -1.2 0.6
v -3.9 -1.2 0.4
v -3.9 -1.2 -0.4
v -3.9 -1.2 -0.6
v -3.9 -0.3 0.6
v -3.9 -0.3 0.4
v -3.9 -0.3 -0.4
v -3.9 -0.3 -0.6
v -3.9 0.9 2.2
v -3.9 0.9 2
v -3.9 1.9 -1.9
v -3.9 1.9 -2.1
v -3.9 2.2 1
v -3.9 2.2 0.8
v -3.9 2.2 -1.7
v -3.9 2.2 -1.9
v -3.9 2.4 2.2
v -3.9 2.4 2
v -3.9 2.4 1
v -3.9 2.4 0.8
v -3.9 2.4 -1.7
v -3.9 2.4 -2.1
v -3.8 1.4 0.7
v -3.8 1.4 0.2
v -3.8 1.4 -0.2
v -3.8 1.4 -0.7
v -3.8 1.5 0.7
v -3.8 1.5 0.2
v -3.8 1.5 -0.2
v -3.8 1.5 -0.7
v -3.8 2.5 1
v -3.8 2.5 0.9
v -3.8 2.5 -0.9
v -3.8 2.5 -1
v -3.8 2.7 0.9
v -3.8 2.7 0.8
v -3.8 2.7 -0.8
v -3.8 2.7 -0.9
v -3.8 3 1
v -3.8 3 0.8
v -3.8 3 -0.8
v -3.8 3 -1
v -3.7 1.4 0.2
v -3.7 1.4 -0.2
v -3.7 1.5 0.2
v -3.7 1.5 -0.2
v -4.4 1.5 -1.9
v -4.4 1.5 -2.1
v -4.4 1.6 -1.9
v -4.4 1.6 -2.1
v -4.1 1.6 -1.9
v -4.1 1.6 -2.1
v -4.1 1.7 -1.9
v -4.1 1.7 -2.1
v -4 1.4 -0.2
v -4 1.4 -0.6
v -4 1.5 -0.2
v -4 1.5 -0.6
v -3.9 1.4 0.7
v -3.9 1.4 -0.2
v -3.9 1.4 -0.6
v -3.9 1.4 -0.7
v -3.9 1.5 0.7
v -3.9 1.5 -0.2
v -3.9 1.5 -0.6
v -3.9 1.5 -0.7
v -3.7 -1.4 0.6
v -3.7 -1.4 0.4
v -3.7 -1.4 -0.4
v -3.7 -1.4 -0.6
v -3.7 -0.3 0.6
v -3.7 -0.3 0.4
v -3.7 -0.3 -0.4
v -3.7 -0.3 -0.6
v -3.7 0.9 2.2
v -3.7 0.9 2
v -3.7 1.7 -1.9
v -3.7 1.7 -2.1
v -3.7 2.2 1
v -3.7 2.2 0.8
v -3.7 2.2 -1.7
v -3.7 2.2 -1.9
v -3.7 2.4 2.2
v -3.7 2.4 2
v -3.7 2.4 1
v -3.7 2.4 0.8
v -3.7 2.4 -1.7
v -3.7 2.4 -2.1
v -3.6 2.5 1
v -3.6 2.5 0.9
v -3.6 2.5 -0.9
v -3.6 2.5 -1
v -3.6 2.7 0.9
v -3.6 2.7 0.8
v -3.6 2.7 -0.8
v -3.6 2.7 -0.9
v -3.6 3 1
v -3.6 3 0.8
v -3.6 3 -0.8
v -3.6 3 -1
v -3.4 0.9 0.6
v -3.4 0.9 -0.6
v -3.4 1.1 0.8
v -3.4 1.1 0.6
v -3.4 1.1 -0.6
v -3.4 1.1 -0.8
v -3.4 3.5 0.8
v -3.4 3.5 0.6
v -3.4 3.5 0.4
v -3.4 3.5 -0.4
v -3.4 3.5 -0.6
v -3.4 3.5 -0.8
v -3.4 3.7 0.6
v -3.4 3.7 0.4
v -3.4 3.7 -0.4
v -3.4 3.7 -0.6
v -3.2 1.1 0.6
v -3.2 1.1 -0.6
v -3.2 3.5 0.6
v -3.2 3.5 0.4
v -3.2 3.5 -0.4
v -3.2 3.5 -0.6
v -3.2 3.7 0.4
v -3.2 3.7 -0.4
v -3.9 0.9 2.2
v -3.9 2.4 2.2
v -3.7 0.9 2.2
v -3.7 2.4 2.2
v -3.9 2.2 1
v -3.9 2.4 1
v -3.8 2.5 1
v -3.8 3 1
v -3.7 2.2 1
v -3.7 2.4 1
v -3.6 2.5 1
v -3.6 3 1
v -4.4 2.1 0.8
v -4.4 2.5 0.8
v -4.4 3.1 0.8
v -4.4 3.3 0.8
v -4.2 1.1 0.8
v -4.2 2.1 0.8
v -4.2 2.5 0.8
v -4.2 3.1 0.8
v -4.2 3.3 0.8
v -4.2 3.5 0.8
v -3.9 2.2 0.8
v -3.9 2.4 0.8
v -3.8 2.7 0.8
v -3.8 3 0.8
v -3.7 2.2 0.8
v -3.7 2.4 0.8
v -3.6 2.7 0.8
v -3.6 3 0.8
v -3.4 1.1 0.8
v -3.4 3.5 0.8
v -4.6 2.1 0.6
v -4.6 2.5 0.6
v -4.4 1.1 0.6
v -4.4 2.1 0.6
v -4.4 2.5 0.6
v -4.4 3.3 0.6
v -4.4 3.5 0.6
v -4.2 0.9 0.6
v -4.2 1.1 0.6
v -4.2 2.1 0.6
v -4.2 3.3 0.6
v -4.2 3.5 0.6
v -4.2 3.7 0.6
v -4.1 -1.4 0.6
v -4.1 -1.2 0.6
v -3.9 -1.2 0.6
v -3.9 -0.3 0.6
v -3.7 -1.4 0.6
v -3.7 -0.3 0.6
v -3.4 0.9 0.6
v -3.4 1.1 0.6
v -3.4 3.5 0.6
v -3.4 3.7 0.6
v -3.2 1.1 0.6
v -3.2 3.5 0.6
v -4.6 2.5 0.4
v -4.6 2.7 0.4
v -4.4 2.5 0.4
v -4.4 2.7 0.4
v -4.4 3.5 0.4
v -4.4 3.7 0.4
v -4.2 3.5 0.4
v -4.2 3.7 0.4
v -3.4 3.5 0.4
v -3.4 3.7 0.4
v -3.2 3.5 0.4
v -3.2 3.7 0.4
v -4.6 2.1 -0.2
v -4.6 2.5 -0.2
v -4.4 2.1 -0.2
v -4.4 2.3 -0.2
v -4.4 2.5 -0.2
v -3.8 1.4 -0.2
v -3.8 1.5 -0.2
v -3.7 1.4 -0.2
v -3.7 1.5 -0.2
v -4.1 -1.4 -0.4
v -4.1 -1.2 -0.4
v -3.9 -1.2 -0.4
v -3.9 -0.3 -0.4
v -3.7 -1.4 -0.4
v -3.7 -0.3 -0.4
v -4 1.4 -0.6
v -4 1.5 -0.6
v -3.9 1.4 -0.6
v -3.9 1.5 -0.6
v -3.9 1.4 -0.7
v -3.9 1.5 -0.7
v -3.8 1.4 -0.7
v -3.8 1.5 -0.7
v -3.8 2.5 -0.9
v -3.8 2.7 -0.9
v -3.6 2.5 -0.9
v -3.6 2.7 -0.9
v -3.9 2.2 -1.7
v -3.9 2.4 -1.7
v -3.7 2.2 -1.7
v -3.7 2.4 -1.7
v -4.7 1.5 -1.9
v -4.7 1.7 -1.9
v -4.5 1.7 -1.9
v -4.5 1.8 -1.9
v -4.4 1.5 -1.9
v -4.4 1.6 -1.9
v -4.2 1.8 -1.9
v -4.2 1.9 -1.9
v -4.1 1.6 -1.9
v -4.1 1.7 -1.9
v -3.9 1.9 -1.9
v -3.9 2.2 -1.9
v -3.7 1.7 -1.9
v -3.7 2.2 -1.9
v -3.9 0.9 2
v -3.9 2.4 2
v -3.7 0.9 2
v -3.7 2.4 2
v -3.8 2.5 0.9
v -3.8 2.7 0.9
v -3.6 2.5 0.9
v -3.6 2.7 0.9
v -3.9 1.4 0.7
v -3.9 1.5 0.7
v -3.8 1.4 0.7
v -3.8 1.5 0.7
v -4.1 -1.4 0.4
v -4.1 -1.2 0.4
v -3.9 -1.2 0.4
v -3.9 -0.3 0.4
v -3.7 -1.4 0.4
v -3.7 -0.3 0.4
v -4.6 2.1 0.2
v -4.6 2.5 0.2
v -4.4 2.1 0.2
v -4.4 2.3 0.2
v -4.4 2.5 0.2
v -3.8 1.4 0.2
v -3.8 1.5 0.2
v -3.7 1.4 0.2
v -3.7 1.5 0.2
v -4 1.4 -0.2
v -4 1.5 -0.2
v -3.9 1.4 -0.2
v -3.9 1.5 -0.2
v -4.6 2.5 -0.4
v -4.6 2.7 -0.4
v -4.4 2.5 -0.4
v -4.4 2.7 -0.4
v -4.4 3.5 -0.4
v -4.4 3.7 -0.4
v -4.2 3.5 -0.4
v -4.2 3.7 -0.4
v -3.4 3.5 -0.4
v -3.4 3.7 -0.4
v -3.2 3.5 -0.4
v -3.2 3.7 -0.4
v -4.6 2.1 -0.6
v -4.6 2.5 -0.6
v -4.4 1.1 -0.6
v -4.4 2.1 -0.6
v -4.4 2.5 -0.6
v -4.4 3.3 -0.6
v -4.4 3.5 -0.6
v -4.2 0.9 -0.6
v -4.2 1.1 -0.6
v -4.2 2.1 -0.6
v -4.2 3.3 -0.6
v -4.2 3.5 -0.6
v -4.2 3.7 -0.6
v -4.1 -1.4 -0.6
v -4.1 -1.2 -0.6
v -3.9 -1.2 -0.6
v -3.9 -0.3 -0.6
v -3.7 -1.4 -0.6
v -3.7 -0.3 -0.6
v -3.4 0.9 -0.6
v -3.4 1.1 -0.6
v -3.4 3.5 -0.6
v -3.4 3.7 -0.6
v -3.2 1.1 -0.6
v -3.2 3.5 -0.6
v -4.4 2.1 -0.8
v -4.4 2.5 -0.8
v -4.4 3.1 -0.8
v -4.4 3.3 -0.8
v -4.2 1.1 -0.8
v -4.2 2.1 -0.8
v -4.2 2.5 -0.8
v -4.2 3.1 -0.8
v -4.2 3.3 -0.8
v -4.2 3.5 -0.8
v -3.8 2.7 -0.8
v -3.8 3 -0.8
v -3.6 2.7 -0.8
v -3.6 3 -0.8
v -3.4 1.1 -0.8
v -3.4 3.5 -0.8
v -3.8 2.5 -1
v -3.8 3 -1
v -3.6 2.5 -1
v -3.6 3 -1
v -4.7 1.5 -2.1
v -4.7 1.7 -2.1
v -4.5 1.7 -2.1
v -4.5 1.8 -2.1
v -4.4 1.5 -2.1
v -4.4 1.6 -2.1
v -4.2 1.8 -2.1
v -4.2 1.9 -2.1
v -4.1 1.6 -2.1
v -4.1 1.7 -2.1
v -3.9 1.9 -2.1
v -3.9 2.4 -2.1
v -3.7 1.7 -2.1
v -3.7 2.4 -2.1
v -4.1 -1.4 0.6
v -3.7 -1.4 0.6
v -4.1 -1.4 0.4
v -3.7 -1.4 0.4
v -4.1 -1.4 -0.4
v -3.7 -1.4 -0.4
v -4.1 -1.4 -0.6
v -3.7 -1.4 -0.6
v -3.9 0.9 2.2
v -3.7 0.9 2.2
v -3.9 0.9 2
v -3.7 0.9 2
v -4.2 0.9 0.6
v -3.4 0.9 0.6
v -4.2 0.9 -0.6
v -3.4 0.9 -0.6
v -4.2 1.1 0.8
v -3.4 1.1 0.8
v -4.4 1.1 0.6
v -4.2 1.1 0.6
v -3.4 1.1 0.6
v -3.2 1.1 0.6
v -4.4 1.1 -0.6
v -4.2 1.1 -0.6
v -3.4 1.1 -0.6
v -3.2 1.1 -0.6
v -4.2 1.1 -0.8
v -3.4 1.1 -0.8
v -3.9 1.5 0.7
v -3.8 1.5 0.7
v -3.8 1.5 0.2
v -3.7 1.5 0.2
v -4 1.5 -0.2
v -3.9 1.5 -0.2
v -3.8 1.5 -0.2
v -3.7 1.5 -0.2
v -4 1.5 -0.6
v -3.9 1.5 -0.6
v -3.9 1.5 -0.7
v -3.8 1.5 -0.7
v -4.7 1.5 -1.9
v -4.4 1.5 -1.9
v -4.7 1.5 -2.1
v -4.4 1.5 -2.1
v -4.4 1.6 -1.9
v -4.1 1.6 -1.9
v -4.4 1.6 -2.1
v -4.1 1.6 -2.1
v -4.1 1.7 -1.9
v -3.7 1.7 -1.9
v -4.1 1.7 -2.1
v -3.7 1.7 -2.1
v -4.4 2.1 0.8
v -4.2 2.1 0.8
v -4.6 2.1 0.6
v -4.4 2.1 0.6
v -4.2 2.1 0.6
v -4.6 2.1 0.2
v -4.4 2.1 0.2
v -4.6 2.1 -0.2
v -4.4 2.1 -0.2
v -4.6 2.1 -0.6
v -4.4 2.1 -0.6
v -4.2 2.1 -0.6
v -4.4 2.1 -0.8
v -4.2 2.1 -0.8
v -3.9 2.2 1
v -3.7 2.2 1
v -3.9 2.2 0.8
v -3.7 2.2 0.8
v -3.9 2.2 -1.7
v -3.7 2.2 -1.7
v -3.9 2.2 -1.9
v -3.7 2.2 -1.9
v -3.8 2.5 1
v -3.6 2.5 1
v -3.8 2.5 0.9
v -3.6 2.5 0.9
v -4.6 2.5 0.2
v -4.4 2.5 0.2
v -4.6 2.5 -0.2
v -4.4 2.5 -0.2
v -3.8 2.5 -0.9
v -3.6 2.5 -0.9
v -3.8 2.5 -1
v -3.6 2.5 -1
v -3.8 2.7 0.9
v -3.6 2.7 0.9
v -3.8 2.7 0.8
v -3.6 2.7 0.8
v -3.8 2.7 -0.8
v -3.6 2.7 -0.8
v -3.8 2.7 -0.9
v -3.6 2.7 -0.9
v -4.1 -1.2 0.6
v -3.9 -1.2 0.6
v -4.1 -1.2 0.4
v -3.9 -1.2 0.4
v -4.1 -1.2 -0.4
v -3.9 -1.2 -0.4
v -4.1 -1.2 -0.6
v -3.9 -1.2 -0.6
v -3.9 -0.3 0.6
v -3.7 -0.3 0.6
v -3.9 -0.3 0.4
v -3.7 -0.3 0.4
v -3.9 -0.3 -0.4
v -3.7 -0.3 -0.4
v -3.9 -0.3 -0.6
v -3.7 -0.3 -0.6
v -3.9 1.4 0.7
v -3.8 1.4 0.7
v -3.8 1.4 0.2
v -3.7 1.4 0.2
v -4 1.4 -0.2
v -3.9 1.4 -0.2
v -3.8 1.4 -0.2
v -3.7 1.4 -0.2
v -4 1.4 -0.6
v -3.9 1.4 -0.6
v -3.9 1.4 -0.7
v -3.8 1.4 -0.7
v -4.7 1.7 -1.9
v -4.5 1.7 -1.9
v -4.7 1.7 -2.1
v -4.5 1.7 -2.1
v -4.5 1.8 -1.9
v -4.2 1.8 -1.9
v -4.5 1.8 -2.1
v -4.2 1.8 -2.1
v -4.2 1.9 -1.9
v -3.9 1.9 -1.9
v -4.2 1.9 -2.1
v -3.9 1.9 -2.1
v -3.9 2.4 2.2
v -3.7 2.4 2.2
v -3.9 2.4 2
v -3.7 2.4 2
v -3.9 2.4 1
v -3.7 2.4 1
v -3.9 2.4 0.8
v -3.7 2.4 0.8
v -3.9 2.4 -1.7
v -3.7 2.4 -1.7
v -3.9 2.4 -2.1
v -3.7 2.4 -2.1
v -4.6 2.5 0.6
v -4.4 2.5 0.6
v -4.6 2.5 0.4
v -4.4 2.5 0.4
v -4.6 2.5 -0.4
v -4.4 2.5 -0.4
v -4.6 2.5 -0.6
v -4.4 2.5 -0.6
v -4.6 2.7 0.4
v -4.4 2.7 0.4
v -4.6 2.7 0.2
v -4.4 2.7 0.2
v -4.6 2.7 -0.2
v -4.4 2.7 -0.2
v -4.6 2.7 -0.4
v -4.4 2.7 -0.4
v -3.8 3 1
v -3.6 3 1
v -3.8 3 0.8
v -3.6 3 0.8
v -3.8 3 -0.8
v -3.6 3 -0.8
v -3.8 3 -1
v -3.6 3 -1
v -4.4 3.3 0.8
v -4.2 3.3 0.8
v -4.4 3.3 0.6
v -4.2 3.3 0.6
v -4.4 3.3 -0.6
v -4.2 3.3 -0.6
v -4.4 3.3 -0.8
v -4.2 3.3 -0.8
v -4.2 3.5 0.8
v -3.4 3.5 0.8
v -4.4 3.5 0.6
v -4.2 3.5 0.6
v -3.4 3.5 0.6
v -3.2 3.5 0.6
v -4.4 3.5 0.4
v -4.2 3.5 0.4
v -3.4 3.5 0.4
v -3.2 3.5 0.4
v -4.4 3.5 -0.4
v -4.2 3.5 -0.4
v -3.4 3.5 -0.4
v -3.2 3.5 -0.4
v -4.4 3.5 -0.6
v -4.2 3.5 -0.6
v -3.4 3.5 -0.6
v -3.2 3.5 -0.6
v -4.2 3.5 -0.8
v -3.4 3.5 -0.8
v -4.2 3.7 0.6
v -3.4 3.7 0.6
v -4.4 3.7 0.4
v -4.2 3.7 0.4
v -3.4 3.7 0.4
v -3.2 3.7 0.4
v -4.4 3.7 -0.4
v -4.2 3.7 -0.4
v -3.4 3.7 -0.4
v -3.2 3.7 -0.4
v -4.2 3.7 -0.6
v -3.4 3.7 -0.6

# faces
f 3/2/1 2/2/1 1/2/1
f 4/2/1 2/2/1 3/2/1
f 9/2/1 6/2/1 5/2/1
f 10/2/1 6/2/1 9/2/1
f 11/2/1 6/2/1 10/2/1
f 12/2/1 8/2/1 7/2/1
f 13/2/1 8/2/1 12/2/1
f 14/2/1 8/2/1 13/2/1
f 15/2/1 11/2/1 10/2/1
f 16/3/1 12/3/1 11/3/1
f 16/2/1 11/2/1 15/2/1
f 17/2/1 13/2/1 12/2/1
f 17/3/1 12/3/1 16/3/1
f 18/2/1 13/2/1 17/2/1
f 21/2/1 20/2/1 19/2/1
f 22/2/1 20/2/1 21/2/1
f 26/2/1 24/2/1 23/2/1
f 27/2/1 24/2/1 26/2/1
f 28/2/1 24/2/1 27/2/1
f 29/2/1 24/2/1 28/2/1
f 31/1/1 28/1/1 27/1/1
f 32/1/1 28/1/1 31/1/1
f 33/2/1 26/2/1 25/2/1
f 34/2/1 26/2/1 33/2/1
f 36/4/1 32/4/1 31/4/1
f 37/4/1 32/4/1 36/4/1
f 39/2/1 30/2/1 29/2/1
f 40/2/1 30/2/1 39/2/1
f 41/3/1 35/3/1 34/3/1
f 41/3/1 34/3/1 33/3/1
f 42/3/1 35/3/1 41/3/1
f 45/3/1 40/3/1 39/3/1
f 45/3/1 39/3/1 38/3/1
f 46/3/1 40/3/1 45/3/1
f 47/3/1 41/3/1 33/3/1
f 48/5/1 43/5/1 42/5/1
f 48/3/1 41/3/1 47/3/1
f 48/5/1 42/5/1 41/5/1
f 49/2/1 44/2/1 43/2/1
f 49/5/1 43/5/1 48/5/1
f 50/5/1 46/5/1 45/5/1
f 50/2/1 44/2/1 49/2/1
f 50/5/1 45/5/1 44/5/1
f 51/3/1 40/3/1 46/3/1
f 51/5/1 46/5/1 50/5/1
f 52/3/1 40/3/1 51/3/1
f 53/2/1 48/2/1 47/2/1
f 53/2/1 50/2/1 49/2/1
f 53/2/1 52/2/1 51/2/1
f 53/2/1 51/2/1 50/2/1
f 53/2/1 49/2/1 48/2/1
f 54/2/1 52/2/1 53/2/1
f 55/2/1 52/2/1 54/2/1
f 56/2/1 52/2/1 55/2/1
f 57/2/1 55/2/1 54/2/1
f 58/2/1 55/2/1 57/2/1
f 59/2/1 55/2/1 58/2/1
f 60/2/1 55/2/1 59/2/1
f 61/2/1 59/2/1 58/2/1
f 62/2/1 59/2/1 61/2/1
f 66/2/1 64/2/1 63/2/1
f 67/2/1 64/2/1 66/2/1
f 71/2/1 70/2/1 69/2/1
f 72/2/1 70/2/1 71/2/1
f 73/2/1 66/2/1 65/2/1
f 74/2/1 66/2/1 73/2/1
f 75/2/1 68/2/1 67/2/1
f 76/2/1 68/2/1 75/2/1
f 81/2/1 78/2/1 77/2/1
f 82/2/1 78/2/1 81/2/1
f 85/2/1 80/2/1 79/2/1
f 86/2/1 80/2/1 85/2/1
f 87/2/1 83/2/1 82/2/1
f 88/2/1 83/2/1 87/2/1
f 89/2/1 85/2/1 84/2/1
f 90/2/1 85/2/1 89/2/1
f 95/2/1 92/2/1 91/2/1
f 96/2/1 92/2/1 95/2/1
f 97/2/1 94/2/1 93/2/1
f 98/2/1 94/2/1 97/2/1
f 103/2/1 100/2/1 99/2/1
f 104/2/1 100/2/1 103/2/1
f 105/2/1 102/2/1 101/2/1
f 106/2/1 102/2/1 105/2/1
f 114/2/1 110/2/1 109/2/1
f 115/2/1 108/2/1 107/2/1
f 116/2/1 108/2/1 115/2/1
f 117/2/1 112/2/1 111/2/1
f 118/2/1 112/2/1 117/2/1
f 119/2/1 114/2/1 113/2/1
f 120/2/1 110/2/1 114/2/1
f 120/2/1 114/2/1 119/2/1
f 125/2/1 122/2/1 121/2/1
f 126/2/1 122/2/1 125/2/1
f 127/2/1 124/2/1 123/2/1
f 128/2/1 124/2/1 127/2/1
f 133/2/1 130/2/1 129/2/1
f 136/2/1 132/2/1 131/2/1
f 137/2/1 134/2/1 133/2/1
f 137/2/1 133/2/1 129/2/1
f 138/2/1 134/2/1 137/2/1
f 139/2/1 136/2/1 135/2/1
f 140/2/1 132/2/1 136/2/1
f 140/2/1 136/2/1 139/2/1
f 143/2/1 142/2/1 141/2/1
f 144/2/1 142/2/1 143/2/1
f 145/2/2 146/2/2 147/2/2
f 147/2/2 146/2/2 148/2/2
f 149/2/2 150/2/2 151/2/2
f 151/2/2 150/2/2 152/2/2
f 153/2/2 154/2/2 155/2/2
f 155/2/2 154/2/2 156/2/2
f 157/2/2 158/2/2 161/2/2
f 161/2/2 158/2/2 162/2/2
f 159/2/2 160/2/2 163/2/2
f 163/2/2 160/2/2 164/2/2
f 165/2/2 166/2/2 169/2/2
f 169/2/2 166/2/2 170/2/2
f 167/2/2 168/2/2 171/2/2
f 171/2/2 168/2/2 172/2/2
f 175/2/2 176/2/2 180/2/2
f 173/2/2 174/2/2 181/2/2
f 181/2/2 174/2/2 182/2/2
f 177/2/2 178/2/2 183/2/2
f 183/2/2 178/2/2 184/2/2
f 179/2/2 180/2/2 185/2/2
f 180/2/2 176/2/2 186/2/2
f 185/2/2 180/2/2 186/2/2
f 187/2/2 188/2/2 191/2/2
f 189/2/2 190/2/2 194/2/2
f 191/2/2 192/2/2 195/2/2
f 187/2/2 191/2/2 195/2/2
f 195/2/2 192/2/2 196/2/2
f 193/2/2 194/2/2 197/2/2
f 194/2/2 190/2/2 198/2/2
f 197/2/2 194/2/2 198/2/2
f 199/2/2 200/2/2 202/2/2
f 202/2/2 200/2/2 203/2/2
f 201/2/2 202/2/2 205/2/2
f 205/2/2 202/2/2 206/2/2
f 203/2/2 204/2/2 209/2/2
f 209/2/2 204/2/2 210/2/2
f 206/2/2 207/2/2 211/2/2
f 211/2/2 207/2/2 212/2/2
f 208/2/2 209/2/2 213/2/2
f 213/2/2 209/2/2 214/2/2
f 215/2/2 216/2/2 217/2/2
f 217/2/2 216/2/2 218/2/2
f 218/2/2 216/2/2 219/2/2
f 219/2/2 216/2/2 220/2/2
f 218/2/2 219/2/2 221/2/2
f 221/2/2 219/2/2 222/2/2
f 225/2/3 224/2/3 223/2/3
f 226/2/3 224/2/3 225/2/3
f 231/2/3 228/2/3 227/2/3
f 232/2/3 228/2/3 231/2/3
f 233/2/3 230/2/3 229/2/3
f 234/2/3 230/2/3 233/2/3
f 240/2/3 236/2/3 235/2/3
f 241/3/3 237/3/3 236/3/3
f 241/2/3 236/2/3 240/2/3
f 242/2/3 238/2/3 237/2/3
f 242/3/3 237/3/3 241/3/3
f 243/2/3 238/2/3 242/2/3
f 245/2/3 241/2/3 240/2/3
f 245/2/3 244/2/3 243/2/3
f 245/2/3 243/2/3 242/2/3
f 245/2/3 242/2/3 241/2/3
f 245/2/3 240/2/3 239/2/3
f 246/2/3 244/2/3 245/2/3
f 247/2/3 244/2/3 246/2/3
f 248/2/3 244/2/3 247/2/3
f 249/2/3 245/2/3 239/2/3
f 250/2/3 247/2/3 246/2/3
f 251/2/3 247/2/3 250/2/3
f 251/2/3 250/2/3 249/2/3
f 252/2/3 244/2/3 248/2/3
f 253/2/3 251/2/3 249/2/3
f 253/2/3 252/2/3 251/2/3
f 253/2/3 249/2/3 239/2/3
f 254/2/3 244/2/3 252/2/3
f 254/2/3 252/2/3 253/2/3
f 258/2/3 256/2/3 255/2/3
f 259/2/3 256/2/3 258/2/3
f 263/2/3 258/2/3 257/2/3
f 264/2/3 258/2/3 263/2/3
f 265/2/3 261/2/3 260/2/3
f 266/2/3 261/2/3 265/2/3
f 270/2/3 269/2/3 268/2/3
f 272/2/3 270/2/3 268/2/3
f 272/2/3 271/2/3 270/2/3
f 273/2/3 271/2/3 272/2/3
f 274/2/3 263/2/3 262/2/3
f 275/2/3 263/2/3 274/2/3
f 276/2/3 267/2/3 266/2/3
f 277/2/3 267/2/3 276/2/3
f 278/2/3 276/2/3 275/2/3
f 279/2/3 276/2/3 278/2/3
f 282/2/3 281/2/3 280/2/3
f 283/2/3 281/2/3 282/2/3
f 286/2/3 285/2/3 284/2/3
f 287/2/3 285/2/3 286/2/3
f 290/2/3 289/2/3 288/2/3
f 291/2/3 289/2/3 290/2/3
f 294/2/3 293/2/3 292/2/3
f 295/2/3 293/2/3 294/2/3
f 296/2/3 293/2/3 295/2/3
f 299/2/3 298/2/3 297/2/3
f 300/2/3 298/2/3 299/2/3
f 303/2/3 302/2/3 301/2/3
f 305/2/3 303/2/3 301/2/3
f 305/2/3 304/2/3 303/2/3
f 306/2/3 304/2/3 305/2/3
f 309/2/3 308/2/3 307/2/3
f 310/2/3 308/2/3 309/2/3
f 313/2/3 312/2/3 311/2/3
f 314/2/3 312/2/3 313/2/3
f 317/2/3 316/2/3 315/2/3
f 318/2/3 316/2/3 317/2/3
f 321/2/3 320/2/3 319/2/3
f 322/2/3 320/2/3 321/2/3
f 325/2/3 324/2/3 323/2/3
f 327/2/3 325/2/3 323/2/3
f 327/2/3 326/2/3 325/2/3
f 328/2/3 326/2/3 327/2/3
f 329/2/3 326/2/3 328/2/3
f 331/2/3 329/2/3 328/2/3
f 331/2/3 330/2/3 329/2/3
f 332/2/3 330/2/3 331/2/3
f 333/2/3 330/2/3 332/2/3
f 335/2/3 333/2/3 332/2/3
f 335/2/3 334/2/3 333/2/3
f 336/2/3 334/2/3 335/2/3
f 337/2/4 338/2/4 339/2/4
f 339/2/4 338/2/4 340/2/4
f 341/2/4 342/2/4 343/2/4
f 343/2/4 342/2/4 344/2/4
f 345/2/4 346/2/4 347/2/4
f 347/2/4 346/2/4 348/2/4
f 349/2/4 350/2/4 351/2/4
f 349/2/4 351/2/4 353/2/4
f 351/2/4 352/2/4 353/2/4
f 353/2/4 352/2/4 354/2/4
f 355/2/4 356/2/4 357/2/4
f 357/2/4 356/2/4 358/2/4
f 358/2/4 356/2/4 359/2/4
f 360/2/4 361/2/4 362/2/4
f 362/2/4 361/2/4 363/2/4
f 364/2/4 365/2/4 366/2/4
f 366/2/4 365/2/4 367/2/4
f 368/2/4 369/2/4 370/2/4
f 370/2/4 369/2/4 371/2/4
f 372/2/4 373/2/4 374/2/4
f 374/2/4 373/2/4 375/2/4
f 376/2/4 377/2/4 378/2/4
f 378/2/4 377/2/4 379/2/4
f 380/2/4 381/2/4 383/2/4
f 383/2/4 381/2/4 384/2/4
f 382/2/4 383/2/4 388/2/4
f 388/2/4 383/2/4 389/2/4
f 385/2/4 386/2/4 390/2/4
f 390/2/4 386/2/4 391/2/4
f 393/2/4 394/2/4 395/2/4
f 393/2/4 395/2/4 397/2/4
f 395/2/4 396/2/4 397/2/4
f 397/2/4 396/2/4 398/2/4
f 387/2/4 388/2/4 399/2/4
f 399/2/4 388/2/4 400/2/4
f 391/2/4 392/2/4 401/2/4
f 401/2/4 392/2/4 402/2/4
f 400/2/4 401/2/4 403/2/4
f 403/2/4 401/2/4 404/2/4
f 405/2/4 406/2/4 410/2/4
f 406/3/4 407/3/4 411/3/4
f 410/2/4 406/2/4 411/2/4
f 407/2/4 408/2/4 412/2/4
f 411/3/4 407/3/4 412/3/4
f 412/2/4 408/2/4 413/2/4
f 410/2/4 411/2/4 415/2/4
f 413/2/4 414/2/4 415/2/4
f 412/2/4 413/2/4 415/2/4
f 411/2/4 412/2/4 415/2/4
f 409/2/4 410/2/4 415/2/4
f 415/2/4 414/2/4 416/2/4
f 409/2/4 415/2/4 417/2/4
f 416/2/4 414/2/4 418/2/4
f 409/2/4 417/2/4 419/2/4
f 417/2/4 418/2/4 419/2/4
f 418/2/4 414/2/4 420/2/4
f 419/2/4 418/2/4 420/2/4
f 421/2/4 422/2/4 423/2/4
f 423/2/4 422/2/4 424/2/4
f 425/2/4 426/2/4 427/2/4
f 425/2/4 427/2/4 429/2/4
f 427/2/4 428/2/4 429/2/4
f 429/2/4 428/2/4 430/2/4
f 430/2/4 428/2/4 431/2/4
f 430/2/4 431/2/4 433/2/4
f 431/2/4 432/2/4 433/2/4
f 433/2/4 432/2/4 434/2/4
f 434/2/4 432/2/4 435/2/4
f 434/2/4 435/2/4 437/2/4
f 435/2/4 436/2/4 437/2/4
f 437/2/4 436/2/4 438/2/4
f 441/2/5 440/2/5 439/2/5
f 442/2/5 440/2/5 441/2/5
f 445/2/5 444/2/5 443/2/5
f 446/2/5 444/2/5 445/2/5
f 449/2/5 448/2/5 447/2/5
f 450/2/5 448/2/5 449/2/5
f 453/2/5 452/2/5 451/2/5
f 454/2/5 452/2/5 453/2/5
f 458/2/5 456/2/5 455/2/5
f 459/2/5 456/2/5 458/2/5
f 461/2/5 458/2/5 457/2/5
f 462/2/5 458/2/5 461/2/5
f 463/2/5 460/2/5 459/2/5
f 464/2/5 460/2/5 463/2/5
f 465/2/5 463/2/5 462/2/5
f 466/2/5 463/2/5 465/2/5
f 469/2/5 468/2/5 467/2/5
f 472/2/5 469/2/5 467/2/5
f 472/2/5 470/2/5 469/2/5
f 473/2/5 470/2/5 472/2/5
f 474/2/5 470/2/5 473/2/5
f 475/2/5 472/2/5 471/2/5
f 475/2/5 473/2/5 472/2/5
f 476/2/5 473/2/5 475/2/5
f 477/2/5 473/2/5 476/2/5
f 478/2/5 473/2/5 477/2/5
f 481/2/5 480/2/5 479/2/5
f 482/2/5 480/2/5 481/2/5
f 485/2/5 484/2/5 483/2/5
f 486/2/5 484/2/5 485/2/5
f 489/2/5 488/2/5 487/2/5
f 490/2/5 488/2/5 489/2/5
f 494/2/5 492/2/5 491/2/5
f 495/2/5 492/2/5 494/2/5
f 496/2/5 494/2/5 493/2/5
f 497/2/5 494/2/5 496/2/5
f 500/2/5 499/2/5 498/2/5
f 501/2/5 499/2/5 500/2/5
f 503/2/5 502/2/5 501/2/5
f 504/2/5 502/2/5 503/2/5
f 507/2/5 506/2/5 505/2/5
f 508/2/5 506/2/5 507/2/5
f 511/2/5 510/2/5 509/2/5
f 512/2/5 510/2/5 511/2/5
f 515/2/5 514/2/5 513/2/5
f 516/2/5 514/2/5 515/2/5
f 519/3/5 518/3/5 517/3/5
f 520/3/5 518/3/5 519/3/5
f 523/2/5 522/2/5 521/2/5
f 524/2/5 522/2/5 523/2/5
f 527/2/5 526/2/5 525/2/5
f 528/2/5 526/2/5 527/2/5
f 531/2/5 530/2/5 529/2/5
f 532/2/5 530/2/5 531/2/5
f 533/2/6 534/2/6 535/2/6
f 535/2/6 534/2/6 536/2/6
f 537/2/6 538/2/6 539/2/6
f 539/2/6 538/2/6 540/2/6
f 541/2/6 542/2/6 543/2/6
f 543/2/6 542/2/6 544/2/6
f 545/2/6 546/2/6 547/2/6
f 547/2/6 546/2/6 548/2/6
f 549/2/6 550/2/6 551/2/6
f 549/2/6 551/2/6 554/2/6
f 551/2/6 552/2/6 554/2/6
f 554/2/6 552/2/6 555/2/6
f 555/2/6 552/2/6 556/2/6
f 553/2/6 554/2/6 557/2/6
f 554/2/6 555/2/6 557/2/6
f 557/2/6 555/2/6 558/2/6
f 558/2/6 555/2/6 559/2/6
f 559/2/6 555/2/6 560/2/6
f 561/2/6 562/2/6 563/2/6
f 563/2/6 562/2/6 564/2/6
f 565/2/6 566/2/6 567/2/6
f 567/2/6 566/2/6 568/2/6
f 569/2/6 570/2/6 571/2/6
f 571/2/6 570/2/6 572/2/6
f 573/2/6 574/2/6 575/2/6
f 575/2/6 574/2/6 576/2/6
f 577/2/6 578/2/6 579/2/6
f 579/2/6 578/2/6 580/2/6
f 581/2/6 582/2/6 583/2/6
f 583/2/6 582/2/6 584/2/6
f 585/2/6 586/2/6 587/2/6
f 587/2/6 586/2/6 588/2/6
f 589/2/6 590/2/6 591/2/6
f 591/2/6 590/2/6 592/2/6
f 593/2/6 594/2/6 595/2/6
f 595/2/6 594/2/6 596/2/6
f 595/3/6 596/3/6 597/3/6
f 597/3/6 596/3/6 598/3/6
f 597/2/6 598/2/6 599/2/6
f 599/2/6 598/2/6 600/2/6
f 601/2/6 602/2/6 603/2/6
f 603/2/6 602/2/6 604/2/6
f 605/2/6 606/2/6 607/2/6
f 607/2/6 606/2/6 608/2/6
f 609/2/6 610/2/6 611/2/6
f 611/2/6 610/2/6 612/2/6
f 613/2/6 614/2/6 615/2/6
f 615/2/6 614/2/6 616/2/6
f 617/2/6 618/2/6 620/2/6
f 620/2/6 618/2/6 621/2/6
f 619/2/6 620/2/6 623/2/6
f 623/2/6 620/2/6 624/2/6
f 621/2/6 622/2/6 625/2/6
f 625/2/6 622/2/6 626/2/6
f 627/2/6 628/2/6 631/2/6
f 631/2/6 628/2/6 632/2/6
f 629/2/6 630/2/6 633/2/6
f 633/2/6 630/2/6 634/2/6
f 632/2/6 633/2/6 635/2/6
f 635/2/6 633/2/6 636/2/6
f 637/2/6 638/2/6 640/2/6
f 640/2/6 638/2/6 641/2/6
f 639/2/6 640/2/6 643/2/6
f 641/2/6 642/2/6 643/2/6
f 640/2/6 641/2/6 643/2/6
f 643/2/6 642/2/6 644/2/6
f 644/2/6 642/2/6 645/2/6
f 645/2/6 642/2/6 646/2/6
f 644/2/6 645/2/6 647/2/6
f 647/2/6 645/2/6 648/2/6
